<svg xmlns="http://www.w3.org/2000/svg" width="45" height="40"><defs><linearGradient id="wgpra" x1="1" x2="44" y1="40" y2="0" gradientUnits="userSpaceOnUse"><stop offset="0" stop-color="#6af4f9"/><stop offset="1" stop-color="#2eb0ec"/></linearGradient></defs><g opacity=".8"><path fill="#fff" d="M42.187 24.827s-12.987.088-20.86.9c-3.688.382-7.156 1.388-8.268 1.732l.44 2.885h27.282c.777 0 1.406.618 1.406 1.38 0 .761-.63 1.379-1.406 1.379H13.535c-1.553 0-2.812-1.236-2.812-2.76l-.352-2.068-.416-2.722a2.675 2.675 0 01-.111-.726L7.03 5.517l-.469-2.76H1.406C.63 2.758 0 2.14 0 1.38 0 .618.63 0 1.406 0h5.625c.125 0 .237.04.352.07.115-.03.227-.07.351-.07.777 0 1.407.618 1.407 1.38l.242 1.425a2.84 2.84 0 01.46-.046h32.344C43.741 2.758 45 3.993 45 5.516v16.552c0 1.524-1.26 2.759-2.813 2.759zm0-17.931c0-.762-.63-1.38-1.406-1.38h-29.18c-.776 0-1.406.618-1.406 1.38l2.344 16.092c0 .762.63 1.379 1.406 1.379 0 0 2.277-.96 6.452-1.44 7.01-.81 20.384-.859 20.384-.859.777 0 1.406-.618 1.406-1.38zM16.875 34.482c1.553 0 2.812 1.235 2.812 2.759 0 1.523-1.259 2.759-2.812 2.759s-2.813-1.236-2.813-2.76c0-1.523 1.26-2.758 2.813-2.758zm0 4.138c.777 0 1.406-.617 1.406-1.38 0-.761-.63-1.378-1.406-1.378-.777 0-1.406.617-1.406 1.379s.63 1.379 1.406 1.379zm19.687-4.138c1.554 0 2.813 1.235 2.813 2.759 0 1.523-1.26 2.759-2.813 2.759-1.553 0-2.812-1.236-2.812-2.76 0-1.523 1.26-2.758 2.812-2.758zm0 4.138c.777 0 1.407-.617 1.407-1.38 0-.761-.63-1.378-1.407-1.378-.776 0-1.406.617-1.406 1.379s.63 1.379 1.406 1.379z"/><path fill="url(#wgpra)" d="M42.187 24.827s-12.987.088-20.86.9c-3.688.382-7.156 1.388-8.268 1.732l.44 2.885h27.282c.777 0 1.406.618 1.406 1.38 0 .761-.63 1.379-1.406 1.379H13.535c-1.553 0-2.812-1.236-2.812-2.76l-.352-2.068-.416-2.722a2.675 2.675 0 01-.111-.726L7.03 5.517l-.469-2.76H1.406C.63 2.758 0 2.14 0 1.38 0 .618.63 0 1.406 0h5.625c.125 0 .237.04.352.07.115-.03.227-.07.351-.07.777 0 1.407.618 1.407 1.38l.242 1.425a2.84 2.84 0 01.46-.046h32.344C43.741 2.758 45 3.993 45 5.516v16.552c0 1.524-1.26 2.759-2.813 2.759zm0-17.931c0-.762-.63-1.38-1.406-1.38h-29.18c-.776 0-1.406.618-1.406 1.38l2.344 16.092c0 .762.63 1.379 1.406 1.379 0 0 2.277-.96 6.452-1.44 7.01-.81 20.384-.859 20.384-.859.777 0 1.406-.618 1.406-1.38zM16.875 34.482c1.553 0 2.812 1.235 2.812 2.759 0 1.523-1.259 2.759-2.812 2.759s-2.813-1.236-2.813-2.76c0-1.523 1.26-2.758 2.813-2.758zm0 4.138c.777 0 1.406-.617 1.406-1.38 0-.761-.63-1.378-1.406-1.378-.777 0-1.406.617-1.406 1.379s.63 1.379 1.406 1.379zm19.687-4.138c1.554 0 2.813 1.235 2.813 2.759 0 1.523-1.26 2.759-2.813 2.759-1.553 0-2.812-1.236-2.812-2.76 0-1.523 1.26-2.758 2.812-2.758zm0 4.138c.777 0 1.407-.617 1.407-1.38 0-.761-.63-1.378-1.407-1.378-.776 0-1.406.617-1.406 1.379s.63 1.379 1.406 1.379z"/></g></svg>