<svg xmlns="http://www.w3.org/2000/svg" width="41" height="43"><defs><linearGradient id="hpz4a" x1="0" x2="41" y1="41" y2="2" gradientUnits="userSpaceOnUse"><stop offset="0" stop-color="#6af4f9"/><stop offset="1" stop-color="#2eb0ec"/></linearGradient></defs><g opacity=".8"><path fill="#fff" d="M38.267 25.544v14.77c0 1.483-1.224 2.685-2.734 2.685H5.466c-1.509 0-2.733-1.202-2.733-2.685v-14.77C1.223 25.544 0 24.342 0 22.86v-6.714c0-1.483 1.224-2.686 2.733-2.686h12.88a14.024 14.024 0 01-6.88-2.354c.036-.011.068-.03.103-.041C7.11 10.102 5.772 8.48 5.29 6.43a7.014 7.014 0 01-.169-1.36 4.313 4.313 0 01.001-.792c.018-.194.042-.384.085-.572a7.15 7.15 0 01.367-1.438c.282-.294.596-.557.927-.803A4.504 4.504 0 018.59.34c.097-.022.194-.02.291-.036.127-.036.245-.085.375-.114 2.656-.604 5.286.313 7.018 2.145.002-.013.007-.026.009-.04a13.46 13.46 0 013.796 6.633c.04.169.046.336.079.503h.682c.033-.167.039-.334.079-.503a13.46 13.46 0 013.796-6.632l.009.039C26.456.503 29.087-.414 31.743.19c.13.029.248.078.374.114.098.016.194.014.292.036.82.186 1.522.593 2.09 1.125.33.246.645.509.927.803.176.46.288.945.367 1.438.043.188.067.378.085.572l.002.026c.021.253.022.508-.002.766-.016.451-.06.905-.168 1.36-.482 2.05-1.82 3.672-3.546 4.634.035.012.067.03.102.04a14.024 14.024 0 01-6.879 2.355h12.88c1.509 0 2.733 1.203 2.733 2.686v6.714c0 1.483-1.224 2.685-2.733 2.685zm-15.034 14.77h10.934c.754 0 1.366-.601 1.366-1.343V25.544c0-.741-.612-1.343-1.366-1.343H23.233zM16.738 8.178c-.48-1.439-1.36-2.718-2.478-3.748 0 .007-.002.013-.003.02-1.071-1.067-2.605-1.687-4.078-1.49-.072.01-.136.03-.206.043-.054.005-.109 0-.163.006a2.108 2.108 0 00-1.127.505c-.175.116-.34.242-.484.386-.077.24-.116.496-.136.757-.015.099-.02.2-.02.303v.015c0 .134.012.272.039.412.032.242.08.489.163.74.375 1.124 1.212 2.06 2.237 2.66-.02.005-.037.013-.056.019 1.849 1.265 4.11 1.918 6.291 1.626.138-.018.269-.049.403-.075a7.28 7.28 0 00-.382-2.179zm1.029 5.259c-.118.01-.235.016-.352.022h.352zm0 2.708H4.1c-.755 0-1.367.601-1.367 1.343v4.028c0 .741.612 1.343 1.367 1.343h13.667zm0 8.056H6.833c-.755 0-1.367.602-1.367 1.343v13.427c0 .742.612 1.343 1.367 1.343h10.934zm1.366-10.742v28.197h2.734V13.46zm11.441-4.653c-.02-.006-.037-.014-.056-.018 1.025-.6 1.862-1.537 2.237-2.662.083-.25.13-.497.163-.74a2.25 2.25 0 00.02-.729A3.282 3.282 0 0032.8 3.9a3.145 3.145 0 00-.484-.386 2.109 2.109 0 00-1.127-.505c-.054-.007-.109-.001-.163-.006-.07-.012-.134-.034-.206-.043-1.473-.197-3.007.423-4.078 1.49 0-.007-.003-.013-.003-.02-1.118 1.03-1.999 2.31-2.478 3.748a7.283 7.283 0 00-.382 2.179c.134.026.264.057.403.075 2.18.292 4.442-.361 6.291-1.626zm-7.34 4.63v.023h.35a10.27 10.27 0 01-.35-.022zm15.033 4.052c0-.742-.612-1.343-1.367-1.343H23.233v6.714H36.9c.755 0 1.367-.602 1.367-1.343z"/><path fill="url(#hpz4a)" d="M38.267 25.544v14.77c0 1.483-1.224 2.685-2.734 2.685H5.466c-1.509 0-2.733-1.202-2.733-2.685v-14.77C1.223 25.544 0 24.342 0 22.86v-6.714c0-1.483 1.224-2.686 2.733-2.686h12.88a14.024 14.024 0 01-6.88-2.354c.036-.011.068-.03.103-.041C7.11 10.102 5.772 8.48 5.29 6.43a7.014 7.014 0 01-.169-1.36 4.313 4.313 0 01.001-.792c.018-.194.042-.384.085-.572a7.15 7.15 0 01.367-1.438c.282-.294.596-.557.927-.803A4.504 4.504 0 018.59.34c.097-.022.194-.02.291-.036.127-.036.245-.085.375-.114 2.656-.604 5.286.313 7.018 2.145.002-.013.007-.026.009-.04a13.46 13.46 0 013.796 6.633c.04.169.046.336.079.503h.682c.033-.167.039-.334.079-.503a13.46 13.46 0 013.796-6.632l.009.039C26.456.503 29.087-.414 31.743.19c.13.029.248.078.374.114.098.016.194.014.292.036.82.186 1.522.593 2.09 1.125.33.246.645.509.927.803.176.46.288.945.367 1.438.043.188.067.378.085.572l.002.026c.021.253.022.508-.002.766-.016.451-.06.905-.168 1.36-.482 2.05-1.82 3.672-3.546 4.634.035.012.067.03.102.04a14.024 14.024 0 01-6.879 2.355h12.88c1.509 0 2.733 1.203 2.733 2.686v6.714c0 1.483-1.224 2.685-2.733 2.685zm-15.034 14.77h10.934c.754 0 1.366-.601 1.366-1.343V25.544c0-.741-.612-1.343-1.366-1.343H23.233zM16.738 8.178c-.48-1.439-1.36-2.718-2.478-3.748 0 .007-.002.013-.003.02-1.071-1.067-2.605-1.687-4.078-1.49-.072.01-.136.03-.206.043-.054.005-.109 0-.163.006a2.108 2.108 0 00-1.127.505c-.175.116-.34.242-.484.386-.077.24-.116.496-.136.757-.015.099-.02.2-.02.303v.015c0 .134.012.272.039.412.032.242.08.489.163.74.375 1.124 1.212 2.06 2.237 2.66-.02.005-.037.013-.056.019 1.849 1.265 4.11 1.918 6.291 1.626.138-.018.269-.049.403-.075a7.28 7.28 0 00-.382-2.179zm1.029 5.259c-.118.01-.235.016-.352.022h.352zm0 2.708H4.1c-.755 0-1.367.601-1.367 1.343v4.028c0 .741.612 1.343 1.367 1.343h13.667zm0 8.056H6.833c-.755 0-1.367.602-1.367 1.343v13.427c0 .742.612 1.343 1.367 1.343h10.934zm1.366-10.742v28.197h2.734V13.46zm11.441-4.653c-.02-.006-.037-.014-.056-.018 1.025-.6 1.862-1.537 2.237-2.662.083-.25.13-.497.163-.74a2.25 2.25 0 00.02-.729A3.282 3.282 0 0032.8 3.9a3.145 3.145 0 00-.484-.386 2.109 2.109 0 00-1.127-.505c-.054-.007-.109-.001-.163-.006-.07-.012-.134-.034-.206-.043-1.473-.197-3.007.423-4.078 1.49 0-.007-.003-.013-.003-.02-1.118 1.03-1.999 2.31-2.478 3.748a7.283 7.283 0 00-.382 2.179c.134.026.264.057.403.075 2.18.292 4.442-.361 6.291-1.626zm-7.34 4.63v.023h.35a10.27 10.27 0 01-.35-.022zm15.033 4.052c0-.742-.612-1.343-1.367-1.343H23.233v6.714H36.9c.755 0 1.367-.602 1.367-1.343z"/></g></svg>